HIERARCHY
ROOT SpineBase
{
  OFFSET 0.000000 0.000000 0.000000
  CHANNELS 6 Xposition Yposition Zposition Zrotation Xrotation Yrotation
  JOINT SpineMid
  {
    OFFSET 0.000000 30.884461 0.000000
    CHANNELS 3 Zrotation Xrotation Yrotation
    JOINT SpineShoulder
    {
      OFFSET 0.212665 22.933946 -0.667214
      CHANNELS 3 Zrotation Xrotation Yrotation
      JOINT Neck
      {
        OFFSET 0.146035 7.580294 -0.538712
        CHANNELS 3 Zrotation Xrotation Yrotation
        JOINT Head
        {
          OFFSET -1.668494 15.079858 -2.827558
          CHANNELS 3 Zrotation Xrotation Yrotation
          End Site
          {
            OFFSET 0 0 0
          }
        }
      }
      JOINT ShoulderLeft
      {
        OFFSET -17.835495 -4.187935 -1.890664
        CHANNELS 3 Zrotation Xrotation Yrotation
        JOINT ElbowLeft
        {
          OFFSET -3.841843 -28.602086 2.465397
          CHANNELS 3 Zrotation Xrotation Yrotation
          JOINT WristLeft
          {
            OFFSET 0.087953 -23.143024 -4.055237
            CHANNELS 3 Zrotation Xrotation Yrotation
            JOINT HandLeft
            {
              OFFSET 0.755216 -3.322320 -1.091693
              CHANNELS 3 Zrotation Xrotation Yrotation
              JOINT HandTipLeft
              {
                OFFSET 1.727274 -7.361630 -1.416362
                CHANNELS 3 Zrotation Xrotation Yrotation
                End Site
                {
                  OFFSET 0 0 0
                }
              }
              JOINT ThumbLeft
              {
                OFFSET 5.079889 1.761430 -2.827179
                CHANNELS 3 Zrotation Xrotation Yrotation
                End Site
                {
                  OFFSET 0 0 0
                }
              }
            }
          }
        }
      }
      JOINT ShoulderRight
      {
        OFFSET 17.758646 -3.353167 -1.684013
        CHANNELS 3 Zrotation Xrotation Yrotation
        JOINT ElbowRight
        {
          OFFSET 5.299520 -29.365928 1.594927
          CHANNELS 3 Zrotation Xrotation Yrotation
          JOINT WristRight
          {
            OFFSET 1.052694 -22.682026 -6.577855
            CHANNELS 3 Zrotation Xrotation Yrotation
            JOINT HandRight
            {
              OFFSET -1.412111 -5.281314 -1.393444
              CHANNELS 3 Zrotation Xrotation Yrotation
              JOINT HandTipRight
              {
                OFFSET 0.390315 -6.187461 -1.837326
                CHANNELS 3 Zrotation Xrotation Yrotation
                End Site
                {
                  OFFSET 0 0 0
                }
              }
              JOINT ThumbRight
              {
                OFFSET 3.133595 -0.672206 -3.256177
                CHANNELS 3 Zrotation Xrotation Yrotation
                End Site
                {
                  OFFSET 0 0 0
                }
              }
            }
          }
        }
      }
    }
  }
  JOINT HipLeft
  {
    OFFSET -6.454137 0.633452 -3.854960
    CHANNELS 3 Zrotation Xrotation Yrotation
    JOINT KneeLeft
    {
      OFFSET -1.403388 -36.434347 4.658461
      CHANNELS 3 Zrotation Xrotation Yrotation
      JOINT AnkleLeft
      {
        OFFSET 0.229366 -36.409865 7.701843
        CHANNELS 3 Zrotation Xrotation Yrotation
        JOINT FootLeft
        {
          OFFSET 0.593733 -5.062288 -7.621288
          CHANNELS 3 Zrotation Xrotation Yrotation
          End Site
          {
            OFFSET 0 0 0
          }
        }
      }
    }
  }
  JOINT HipRight
  {
    OFFSET 7.917579 0.932341 -3.241847
    CHANNELS 3 Zrotation Xrotation Yrotation
    JOINT KneeRight
    {
      OFFSET 2.862795 -34.373189 2.730880
      CHANNELS 3 Zrotation Xrotation Yrotation
      JOINT AnkleRight
      {
        OFFSET -0.905649 -37.035907 9.082729
        CHANNELS 3 Zrotation Xrotation Yrotation
        JOINT FootRight
        {
          OFFSET 0.337633 -4.352594 -9.349481
          CHANNELS 3 Zrotation Xrotation Yrotation
          End Site
          {
            OFFSET 0 0 0
          }
        }
      }
    }
  }
}
MOTION
Frames: 6
Frame Time: 0.033333
-74.253428 81.995410 275.804136 0.429526 -2.065449 -7.138148 -0.003204 -0.344927 7.181450 -0.122970 -0.089506 0.035838 -1.866406 -1.652682 -0.805718 0.000000 0.000000 0.000000 1.577875 15.681278 -1.998981 -0.788438 12.589466 1.358870 -5.168092 -0.365099 5.696436 0.203542 -5.031617 -1.435350 0.000000 0.000000 0.000000 0.000000 0.000000 0.000000 1.443799 -5.374324 -1.339193 3.553716 -3.312131 -0.857270 3.207283 10.788781 -1.252560 -14.439350 -14.130958 2.505622 0.000000 0.000000 0.000000 0.000000 0.000000 0.000000 -1.263268 0.102813 7.134298 7.616301 -5.481223 1.614975 -2.618504 2.535852 -8.473366 0.000000 0.000000 0.000000 -3.188118 23.824591 9.639703 0.325174 -9.124093 -1.800672 -0.928000 -18.980976 -0.794475 0.000000 0.000000 0.000000
-73.928861 81.591970 272.731519 0.613680 -1.863387 -6.889937 -0.011270 -0.372838 6.939668 -0.137033 -0.090722 0.040640 -2.450341 -1.838132 -0.894873 0.000000 0.000000 0.000000 1.602087 16.199952 -2.121345 -0.982028 12.725761 1.421392 -4.273252 -0.000775 5.832161 -1.456435 -5.782461 -1.618138 0.000000 0.000000 0.000000 0.000000 0.000000 0.000000 1.346930 -5.586696 -1.340198 3.652740 -4.442536 -0.905990 3.779630 11.715596 -1.525282 -14.333977 -14.729815 2.454232 0.000000 0.000000 0.000000 0.000000 0.000000 0.000000 -1.952860 -0.822981 6.834446 7.562507 -5.186842 1.437475 0.282062 8.450559 -10.781026 0.000000 0.000000 0.000000 -3.664730 22.758438 9.324287 0.822058 -4.227916 -1.814727 -0.311553 -21.159828 -1.142672 0.000000 0.000000 0.000000
-73.549933 81.244664 268.667065 0.685145 -1.544767 -6.907627 -0.025474 -0.358549 6.955337 -0.146868 -0.088752 0.038846 -2.878048 -2.564428 -1.026314 0.000000 0.000000 0.000000 1.515205 15.338298 -2.021161 -1.262349 12.337050 1.408256 -4.272835 0.836642 5.929746 -1.555309 -6.981297 -2.007529 0.000000 0.000000 0.000000 0.000000 0.000000 0.000000 1.124883 -5.834224 -1.328196 3.990891 -5.597524 -0.968415 4.058034 11.636206 -1.340530 -14.051605 -14.130356 2.257779 0.000000 0.000000 0.000000 0.000000 0.000000 0.000000 -2.836384 -1.526649 6.735883 7.914459 -6.191850 1.413595 5.929717 16.971763 -16.911072 0.000000 0.000000 0.000000 -3.731709 21.016253 9.152164 0.690767 -1.085940 -1.909597 -0.455596 -24.588550 0.238651 0.000000 0.000000 0.000000
-73.043829 80.982512 264.599273 0.718112 -1.076489 -6.953723 -0.030196 -0.349756 6.995153 -0.149557 -0.085671 0.034497 -3.239198 -3.200477 -1.128487 0.000000 0.000000 0.000000 1.205826 13.372876 -1.752263 -1.525531 11.671630 1.351121 -5.688991 1.410945 5.993959 0.151920 -7.483309 -2.357787 0.000000 0.000000 0.000000 0.000000 0.000000 0.000000 0.849385 -5.716400 -1.233125 4.280887 -5.713131 -1.039860 2.724432 9.638199 -0.135296 -11.923052 -12.173452 1.498978 0.000000 0.000000 0.000000 0.000000 0.000000 0.000000 -3.571575 -1.176396 6.653900 8.102897 -9.573152 1.590740 10.535410 27.199526 -21.034573 0.000000 0.000000 0.000000 -3.352084 18.722333 8.905534 -0.281501 0.148604 -2.147981 0.731776 -20.912297 0.594109 0.000000 0.000000 0.000000
-72.515121 80.835305 261.057425 0.706202 -0.633521 -6.843341 -0.030014 -0.355307 6.877256 -0.150525 -0.089143 0.029096 -3.576372 -3.580729 -1.208099 0.000000 0.000000 0.000000 0.911656 11.599813 -1.517993 -1.897552 9.597721 1.335460 -6.583379 1.442419 5.744699 1.556549 -6.044324 -2.256280 0.000000 0.000000 0.000000 0.000000 0.000000 0.000000 0.627348 -5.193355 -1.076687 4.325459 -5.471066 -1.070149 0.933327 8.167360 0.821681 -9.507845 -10.694972 0.825710 0.000000 0.000000 0.000000 0.000000 0.000000 0.000000 -4.354273 0.601846 6.414996 8.487670 -14.883568 2.035105 14.597785 39.669971 -23.880490 0.000000 0.000000 0.000000 -2.792824 16.765829 8.542990 -1.333054 -1.400362 -2.303045 1.151936 -18.466042 1.489916 0.000000 0.000000 0.000000
-71.936308 80.732800 256.951289 0.740145 -0.261892 -6.424595 -0.026499 -0.339764 6.453707 -0.149625 -0.082303 0.026425 -3.771925 -4.025031 -1.266090 0.000000 0.000000 0.000000 0.385022 8.495738 -1.101399 -2.158894 8.691654 1.194635 -7.776051 -0.094895 5.132000 2.926651 -3.600384 -2.084647 0.000000 0.000000 0.000000 0.000000 0.000000 0.000000 0.366293 -4.380705 -0.880261 4.289891 -5.381256 -1.103758 0.078807 5.965149 1.512674 -8.837348 -7.996490 0.588128 0.000000 0.000000 0.000000 0.000000 0.000000 0.000000 -5.070343 3.538442 5.919307 9.127842 -21.125288 2.766919 14.819578 44.693700 -23.669246 0.000000 0.000000 0.000000 -2.372808 14.175035 7.820965 -1.964026 -2.869457 -2.236913 1.435164 -14.678684 2.114474 0.000000 0.000000 0.000000
